<svg id="Layer_2" height="512" viewBox="0 0 512 512" width="512" xmlns="http://www.w3.org/2000/svg" data-name="Layer 2"><g id="Icon"><path id="An" d="m176.53 205.89 24.58 79.08h-49.01zm335.47-70.89v242c0 74.56-60.44 135-135 135h-242c-74.56 0-135-60.44-135-135v-242c0-74.56 60.44-135 135-135h242c74.56 0 135 60.44 135 135zm-225.39 234.99-84.24-227.99h-51.67l-83.62 227.99h58.72l13.15-42.59h75.32l13.31 42.59zm158.31-109.14c-.31-21.19-4.83-37.06-13.54-47.6-8.72-10.54-21.9-15.82-39.54-15.82-20.57 0-36.69 7.67-48.39 23.02l-1.72-19.89h-49.48v169.43h52.77v-119.63c5.01-8.14 12.68-12.21 23.02-12.21 9.08 0 15.35 2.01 18.79 6.03s5.17 10.31 5.17 18.87v106.95h52.93v-109.14z"/></g></svg>